<svg width="3038" height="2570" xmlns="http://www.w3.org/2000/svg" xmlns:xlink="http://www.w3.org/1999/xlink" xml:space="preserve" overflow="hidden"><g transform="translate(-440 18)"><g><text fill="#A6A6A6" fill-opacity="1" font-family="JetBrainsMono Nerd Font,JetBrainsMono Nerd Font_MSFontService,sans-serif" font-style="normal" font-variant="normal" font-weight="700" font-stretch="normal" font-size="110" text-anchor="start" direction="ltr" writing-mode="lr-tb" unicode-bidi="normal" text-decoration="none" transform="matrix(1 0 0 1 1808.46 119)">00:00</text><text fill="#A6A6A6" fill-opacity="1" font-family="JetBrainsMono Nerd Font,JetBrainsMono Nerd Font_MSFontService,sans-serif" font-style="normal" font-variant="normal" font-weight="700" font-stretch="normal" font-size="110" text-anchor="start" direction="ltr" writing-mode="lr-tb" unicode-bidi="normal" text-decoration="none" transform="matrix(1 0 0 1 3080.69 1289)">06:00</text><text fill="#A6A6A6" fill-opacity="1" font-family="JetBrainsMono Nerd Font,JetBrainsMono Nerd Font_MSFontService,sans-serif" font-style="normal" font-variant="normal" font-weight="700" font-stretch="normal" font-size="110" text-anchor="start" direction="ltr" writing-mode="lr-tb" unicode-bidi="normal" text-decoration="none" transform="matrix(1 0 0 1 1808.46 2454)">12:00</text><text fill="#A6A6A6" fill-opacity="1" font-family="JetBrainsMono Nerd Font,JetBrainsMono Nerd Font_MSFontService,sans-serif" font-style="normal" font-variant="normal" font-weight="700" font-stretch="normal" font-size="110" text-anchor="start" direction="ltr" writing-mode="lr-tb" unicode-bidi="normal" text-decoration="none" transform="matrix(1 0 0 1 509.768 1289)">18:00</text><path d="M1975 140C2575.89 140 3063 626.89 3063 1227.5 3063 1828.11 2575.89 2315 1975 2315 1374.11 2315 887 1828.11 887 1227.5 887 626.89 1374.11 140 1975 140ZM1975 367.44C1499.78 367.44 1114.54 752.502 1114.54 1227.5 1114.54 1702.5 1499.78 2087.56 1975 2087.56 2450.22 2087.56 2835.46 1702.5 2835.46 1227.5 2835.46 752.502 2450.22 367.44 1975 367.44Z" fill="#F2F2F2" fill-rule="evenodd" fill-opacity="1"/><path d="M1975.35 140C2312.99 140 2614.67 294.099 2814.01 535.863L2859 596.078 2674.04 728 2638.61 680.577C2480.96 489.377 2242.37 367.505 1975.35 367.505 1916.01 367.505 1858.07 373.523 1802.12 384.984L1733.56 402.627 1668 184.827 1756.31 162.1C1827.06 147.61 1900.31 140 1975.35 140Z" fill="#FF0000" fill-rule="evenodd" fill-opacity="1"/><path d="M2819.09 1400 3040 1452.37 3030.12 1490.84 3017.75 1534.93 2996.29 1593.59 2985.36 1623 2776 1534.99 2804.27 1457.68 2819.09 1400Z" fill="#FF0000" fill-rule="evenodd" fill-opacity="1"/><path d="M1671.77 2034 1711.81 2048.64 1786 2067.7 1737.6 2290 1644.07 2265.98 1593 2247.3 1671.77 2034Z" fill="#FF0000" fill-rule="evenodd" fill-opacity="1"/><text fill="#FFFFFF" fill-opacity="1" font-family="JetBrainsMono Nerd Font,JetBrainsMono Nerd Font_MSFontService,sans-serif" font-style="normal" font-variant="normal" font-weight="100" font-stretch="normal" font-size="83" text-anchor="start" direction="ltr" writing-mode="lr-tb" unicode-bidi="normal" text-decoration="none" transform="matrix(1 0 0 1 1695.78 496)">23:00</text><text fill="#FFFFFF" fill-opacity="1" font-family="JetBrainsMono Nerd Font,JetBrainsMono Nerd Font_MSFontService,sans-serif" font-style="normal" font-variant="normal" font-weight="100" font-stretch="normal" font-size="83" text-anchor="start" direction="ltr" writing-mode="lr-tb" unicode-bidi="normal" text-decoration="none" transform="matrix(1 0 0 1 2405.7 786)">03:30</text><text fill="#FFFFFF" fill-opacity="1" font-family="JetBrainsMono Nerd Font,JetBrainsMono Nerd Font_MSFontService,sans-serif" font-style="normal" font-variant="normal" font-weight="100" font-stretch="normal" font-size="83" text-anchor="start" direction="ltr" writing-mode="lr-tb" unicode-bidi="normal" text-decoration="none" transform="matrix(1 0 0 1 2559.92 1401)">07:00</text><text fill="#FFFFFF" fill-opacity="1" font-family="JetBrainsMono Nerd Font,JetBrainsMono Nerd Font_MSFontService,sans-serif" font-style="normal" font-variant="normal" font-weight="100" font-stretch="normal" font-size="83" text-anchor="start" direction="ltr" writing-mode="lr-tb" unicode-bidi="normal" text-decoration="none" transform="matrix(1 0 0 1 1803.38 2061)">13:00</text><text fill="#FFFFFF" fill-opacity="1" font-family="JetBrainsMono Nerd Font,JetBrainsMono Nerd Font_MSFontService,sans-serif" font-style="normal" font-variant="normal" font-weight="100" font-stretch="normal" font-size="83" text-anchor="start" direction="ltr" writing-mode="lr-tb" unicode-bidi="normal" text-decoration="none" transform="matrix(1 0 0 1 2512.41 1567)">07:20</text><text fill="#FFFFFF" fill-opacity="1" font-family="JetBrainsMono Nerd Font,JetBrainsMono Nerd Font_MSFontService,sans-serif" font-style="normal" font-variant="normal" font-weight="100" font-stretch="normal" font-size="83" text-anchor="start" direction="ltr" writing-mode="lr-tb" unicode-bidi="normal" text-decoration="none" transform="matrix(1 0 0 1 1560.18 1973)">13:20</text></g></g></svg>